Coordinates
version=1
nRows=10
nColumns=40
inDegrees=yes

Units are S.I. units (second, meters, Newtons, ...)
Angles are in degrees.

endheader
time	pelvis_tilt	pelvis_list	pelvis_rotation	pelvis_tx	pelvis_ty	pelvis_tz	hip_flexion_r	hip_adduction_r	hip_rotation_r	knee_angle_r	knee_angle_r_beta	ankle_angle_r	subtalar_angle_r	mtp_angle_r	hip_flexion_l	hip_adduction_l	hip_rotation_l	knee_angle_l	knee_angle_l_beta	ankle_angle_l	subtalar_angle_l	mtp_angle_l	lumbar_extension	lumbar_bending	lumbar_rotation	arm_flex_r	arm_add_r	arm_rot_r	elbow_flex_r	pro_sup_r	wrist_flex_r	wrist_dev_r	arm_flex_l	arm_add_l	arm_rot_l	elbow_flex_l	pro_sup_l	wrist_flex_l	wrist_dev_l
      2.24000000	     -3.84827121	     -3.46488545	      0.87003890	      0.91540569	      0.91547996	      0.42226328	     13.47533892	     -8.65607809	     -9.45414790	     58.49227612	     58.49227612	      2.91368206	    -18.28288535	      5.05678508	     20.09844357	     -0.67857051	     -0.72462591	     32.48484243	     32.48484243	     18.96205785	    -17.41247032	      8.74201743	     -9.36784258	      3.75072837	      3.99965578	     30.93175784	    -15.11874334	    -17.72855092	     33.29656964	     45.80308807	      0.00000000	      0.00000000	      6.56258564	    -12.90418547	     16.17782207	     37.72730280	     45.76457766	      0.00000000	      0.00000000
      2.25978571	     -3.64793361	     -3.56087478	      0.34281458	      0.91461326	      0.91353767	      0.42079074	     15.21336923	     -8.78607806	     -9.19351081	     60.57933790	     60.57933790	      3.49693549	    -18.75055073	      5.24301099	     19.95577277	     -0.77062603	     -1.00949879	     33.46568957	     33.46568957	     19.73387124	    -17.71013778	      8.46266692	     -9.61586290	      4.11880881	      3.37616139	     28.02075911	    -14.48078579	    -17.71427084	     32.03935916	     45.83572479	      0.00000000	      0.00000000	      8.11985151	    -13.09804246	     15.93836945	     38.40358433	     45.81543028	      0.00000000	      0.00000000
      2.27957143	     -3.38667125	     -3.74859861	     -0.23030956	      0.91383904	      0.91198334	      0.41956577	     17.01907527	     -8.57209784	     -8.65793097	     62.63310213	     62.63310213	      5.49506688	    -18.93050010	     10.08698582	     19.68066942	     -0.97983611	     -1.30415871	     34.38662970	     34.38662970	     20.86357961	    -17.81768073	      9.17495905	    -10.00190625	      4.57420415	      3.33118063	     24.58685079	    -14.23212205	    -17.77429829	     30.82650736	     45.89353768	      0.00000000	      0.00000000	     10.04035398	    -13.16440628	     15.75346759	     39.19679342	     45.87471735	      0.00000000	      0.00000000
      2.29935714	     -3.15895007	     -3.87051087	     -0.77174612	      0.91312788	      0.91063388	      0.41829057	     18.62371017	     -8.56730128	     -8.42265850	     64.01625500	     64.01625500	      6.11606956	    -19.11642206	     10.22336139	     19.29559242	     -1.09561456	     -1.60461684	     35.02430548	     35.02430548	     21.54358868	    -18.02801775	      8.95336833	    -10.32810265	      5.00846533	      2.63870270	     21.62768959	    -13.63033558	    -17.77474145	     29.57046813	     45.92558896	      0.00000000	      0.00000000	     11.64438929	    -13.55978612	     15.48498322	     39.88352665	     45.92838039	      0.00000000	      0.00000000
      2.31914286	     -3.01482822	     -4.06922561	     -1.38940356	      0.91231163	      0.90981467	      0.41748139	     20.39293718	     -8.17656758	     -7.89139095	     65.08424816	     65.08424816	      7.80636894	    -19.18138074	     14.15972179	     18.89677551	     -1.34142865	     -1.98878115	     35.48542862	     35.48542862	     22.40221587	    -18.08030089	      9.50542926	    -10.65919713	      5.48484937	      2.81767876	     18.07152428	    -13.55816254	    -17.96004915	     28.41946276	     45.99580412	      0.00000000	      0.00000000	     13.65093897	    -13.67835669	     15.32619959	     40.89036435	     45.98941405	      0.00000000	      0.00000000
      2.33892857	     -2.90974203	     -4.22604801	     -2.04936304	      0.91155095	      0.90963400	      0.41693953	     21.94524653	     -7.82075221	     -7.47247014	     65.30625524	     65.30625524	      8.41193119	    -19.23625658	     14.25737730	     18.31974817	     -1.56458327	     -2.46468470	     35.52340339	     35.52340339	     22.85397366	    -18.15874134	      9.44800975	    -10.94061917	      5.93871704	      2.63020155	     14.96016763	    -13.29230339	    -18.00517685	     27.06973296	     46.04016632	      0.00000000	      0.00000000	     15.36625330	    -14.06261182	     14.93727836	     41.93303647	     46.05908703	      0.00000000	      0.00000000
      2.35871429	     -2.86681230	     -4.40599172	     -2.69613401	      0.91078335	      0.91022516	      0.41680855	     23.39918676	     -7.31273316	     -7.07663155	     64.81836720	     64.81836720	      8.93021294	    -19.24932978	     14.25387461	     17.60961944	     -1.82317961	     -2.93489610	     35.17483311	     35.17483311	     23.12627705	    -18.16655567	      9.47655611	    -11.14913707	      6.40295625	      2.15848600	     12.03875144	    -12.79259068	    -18.03793984	     25.90277237	     46.07222220	      0.00000000	      0.00000000	     16.92644230	    -14.73922266	     14.50723347	     42.81069681	     46.12653046	      0.00000000	      0.00000000
      2.37850000	     -2.85820988	     -4.58742396	     -3.47523536	      0.90992318	      0.91142306	      0.41710731	     24.78959023	     -6.59663550	     -6.47619352	     63.70318012	     63.70318012	      9.48970383	    -19.19291645	     14.20380724	     16.76525656	     -2.12036980	     -3.57917455	     34.51196302	     34.51196302	     23.31323355	    -18.17952075	      9.53799153	    -11.40041199	      6.88952865	      2.38362484	      8.96897827	    -12.81472819	    -18.14193986	     24.76035315	     46.11602836	      0.00000000	      0.00000000	     18.65930994	    -15.04662988	     13.89321157	     44.42729735	     46.22146069	      0.00000000	      0.00000000
      2.39828571	     -3.10752425	     -4.78768289	     -4.21207993	      0.90880048	      0.91298283	      0.41782866	     26.27119401	     -5.76106705	     -5.94695611	     61.88736546	     61.88736546	      9.95194519	    -18.98655491	     14.01782473	     16.12320681	     -2.47089461	     -4.18802090	     33.65389651	     33.65389651	     23.33136444	    -18.06107177	      9.67138737	    -11.39640544	      7.40069399	      1.59678264	      6.56219989	    -12.37207723	    -18.19608486	     23.94825187	     46.13645036	      0.00000000	      0.00000000	     20.03951404	    -16.15239394	     13.41040624	     45.06827159	     46.28563068	      0.00000000	      0.00000000
      2.41807143	     -3.20202444	     -4.97403832	     -5.10017920	      0.90785736	      0.91543552	      0.41903659	     27.21948445	     -4.83892467	     -5.36010984	     59.10568320	     59.10568320	      9.43279610	    -18.81589520	     10.87389272	     14.98427853	     -2.82208245	     -5.02592133	     32.21829236	     32.21829236	     22.86848581	    -17.97082250	      9.04133311	    -11.72455057	      7.82286156	      2.06423705	      3.14469250	    -12.32200973	    -18.64469703	     24.22664336	     46.17848150	      0.00000000	      0.00000000	     20.97905273	    -16.53361822	     11.48989861	     48.97185562	     46.51947801	      0.00000000	      0.00000000
